<svg width="22" height="22" viewBox="0 0 22 22" fill="none" xmlns="http://www.w3.org/2000/svg">
<rect width="22" height="22" fill="white"/>
<path fill-rule="evenodd" clip-rule="evenodd" d="M11.4861 3.52091C11.2176 3.25243 10.7823 3.25243 10.5138 3.52091L4.13047 9.90428C3.70473 10.33 3.48628 10.9206 3.53245 11.5209L4.02529 17.9277C4.05284 18.2859 4.35152 18.5625 4.71076 18.5625H8.93747V15.125C8.93747 13.9859 9.86088 13.0625 11 13.0625C12.1391 13.0625 13.0625 13.9859 13.0625 15.125V18.5625H17.2892C17.6484 18.5625 17.9471 18.2859 17.9747 17.9277L18.4675 11.5209C18.5137 10.9206 18.2952 10.33 17.8695 9.90428L11.4861 3.52091ZM9.54156 2.54864C10.347 1.74319 11.6529 1.74319 12.4584 2.54864L18.8417 8.93201C19.5513 9.64158 19.9154 10.6258 19.8384 11.6263L19.3456 18.0332C19.2629 19.1077 18.3669 19.9375 17.2892 19.9375H13.0625C12.3031 19.9375 11.6875 19.3219 11.6875 18.5625V15.125C11.6875 14.7453 11.3797 14.4375 11 14.4375C10.6203 14.4375 10.3125 14.7453 10.3125 15.125V18.5625C10.3125 19.3219 9.69686 19.9375 8.93747 19.9375H4.71076C3.63303 19.9375 2.737 19.1077 2.65434 18.0332L2.1615 11.6263C2.08454 10.6258 2.44862 9.64158 3.1582 8.93201L9.54156 2.54864Z" fill="#408080"/>
</svg>
